inDegrees=yes
name=ik_coleta2_mov
DataType=double
version=3
OpenSimVersion=4.4-2022-07-23-0e9fedc
endheader
time	pelvis_tilt	pelvis_list	pelvis_rotation	pelvis_tx	pelvis_ty	pelvis_tz	hip_flexion_r	hip_adduction_r	hip_rotation_r	knee_angle_r	knee_angle_r_beta	ankle_angle_r	subtalar_angle_r	mtp_angle_r	hip_flexion_l	hip_adduction_l	hip_rotation_l	knee_angle_l	knee_angle_l_beta	ankle_angle_l	subtalar_angle_l	mtp_angle_l	lumbar_extension	lumbar_bending	lumbar_rotation	arm_flex_r	arm_add_r	arm_rot_r	elbow_flex_r	pro_sup_r	wrist_flex_r	wrist_dev_r	arm_flex_l	arm_add_l	arm_rot_l	elbow_flex_l	pro_sup_l	wrist_flex_l	wrist_dev_l
13.97794795036316	89.99999999999901	-3.65468676240411e-20	-1.443598862966205e-28	-2.819112205963217e-22	0.93	1.254637896999106e-20	-48.57768587907454	3.72238120634301	1.914451437938959	0.01099835071143542	0.0001919574322036088	-8.65572809199943e-20	2.619949294228872e-21	-6.984326621981972e-24	44.90307747454332	-2.890207225593922e-35	-5.017807317502157e-24	2.833979281734991e-14	4.94622694008473e-16	-2.368547206689644e-19	-8.216565812266233e-22	3.666594249374856e-23	2.300177072397429e-56	4.854722208978581e-24	-1.77492008205348e-26	1.954296100317403e-26	-3.359353152805112e-19	2.305519226316922e-19	2.833979284231616e-14	2.833979283871832e-14	4.799182795447575e-19	-1.610049105821531e-20	3.860810134061741e-19	-7.841947099173785e-19	-1.913279183109619e-21	2.833979274125474e-14	2.83397930728789e-14	1.547231616716319e-18	-4.935415522170552e-21
13.98194003105164	89.99999999999901	0	0	0	0.93	0	-51.24240627310375	2.695709752569214	2.775411792590941	0.007083859935022774	0.000123636679616259	0	0	0	44.9031409388653	0	0	0	0	0	0	0	0	0	0	0	0	0	1.052357267868557e-38	0	0	0	0	0	0	1.052357267868557e-38	0	0	0
13.99295377731323	89.99999999999901	2.586273221513765e-34	-6.465683053784412e-35	0	0.93	1.282927060844254e-49	-51.3242608113762	2.668175187121439	2.792063848254383	0.007191471652652499	0.0001255148584026241	0	-1.64430823104462e-39	0	44.90332434454501	-2.020525954307629e-36	5.608086090812616e-53	0	0	0	0	1.184230924370372e-36	0	0	0	0	0	0	5.750951996062334e-38	0	1.120157249562684e-36	1.072421087846799e-51	0	9.4743518425321e-36	0	3.213973258546794e-39	0	1.92958638838953e-36	1.072421087846799e-51
14.00294089317322	89.99999999999226	-8.505546996446149e-13	-9.713123295875329e-13	6.959082261498092e-20	0.93	-5.429758214661994e-20	-53.99105263408393	2.667574090310127	2.396688660015235	0.0055291668552581	9.650216639658024e-05	-7.815220295615271e-08	1.245497253688143e-06	-3.735436156870203e-07	44.90337004650137	-1.771351639337343e-40	-9.278361517375484e-22	7.351502233464005e-07	1.283079188690992e-08	8.231080808031521e-08	-2.763815443683284e-06	-8.344738285928036e-08	0	5.115208572668707e-22	2.670246392753362e-33	-4.235144952473949e-17	-5.844222216830913e-09	8.054179720576387e-07	7.351428888700613e-07	7.351502233573443e-07	-1.27020377740288e-16	9.870956546082822e-17	2.019988926727016e-07	6.650044799077478e-08	1.926057720706874e-06	7.351502242733619e-07	7.351502233631901e-07	-3.107781269772032e-17	-2.052557921008308e-18
14.00892996788025	89.99999999999901	-2.537244004898388e-17	2.75512237923566e-29	-3.054192313578318e-19	0.93	-1.176706749360937e-19	-55.80696436364903	2.732211732961163	2.168466404857256	0.004770935008096936	8.326852428995385e-05	1.364519258614431e-17	-2.571462502322583e-19	-3.882220153260706e-19	44.90343850040252	-4.305212185159218e-28	-3.757292711028535e-17	8.609096454233858e-16	1.502570698113709e-17	-8.026244607138604e-19	-1.715576663085167e-18	-1.324103600417299e-18	0	1.211780777616179e-27	1.70245597007228e-20	-9.730769570599201e-23	-1.365095673598954e-18	-4.089559506497075e-17	8.609085112488947e-16	8.608994214571373e-16	-6.577686945561483e-18	-9.294860728191133e-18	-2.631375053689786e-17	5.92921110759378e-18	-1.862292411387961e-17	8.608952666919339e-16	8.609085641517974e-16	1.737449036625881e-17	-2.424924390753034e-17
14.01495599746704	89.99999999999901	4.310455369189608e-35	-8.620910738379216e-35	8.758115402030107e-46	0.93	1.305060893599705e-54	-55.89177365889664	2.708191218861839	2.156928956988586	0.004805734058127118	8.387588228954677e-05	-5.398112981535469e-38	2.699675069636023e-44	0	44.90364666672011	0	-3.439626135698404e-51	0	4.040761830951613e-39	-1.893882807244196e-35	0	-4.379159349171541e-44	0	-1.869362030270872e-52	-3.468542829604157e-55	-6.125525500791593e-49	-1.347017302871753e-36	4.975853239011397e-36	0	0	8.372306023281356e-38	1.737705326210809e-37	-2.271993622636155e-36	-5.38806921148701e-36	-5.107481186071044e-36	1.7637883210847e-39	0	-1.674461204656271e-37	1.117908532795124e-36
14.01895403862	90.00000000000259	2.791140369469388e-12	3.64259525527006e-12	-1.712727697299537e-29	0.93	4.271342580822185e-29	-56.67842014175147	2.716204456066291	2.056749777926012	0.004533964529948755	7.91326092251277e-05	2.502723357973501e-19	3.99867085851293e-19	-3.44243595234855e-23	44.90385590562766	-1.730910467556799e-45	1.365479600750738e-31	9.658339530129923e-06	1.685698249019303e-07	3.005539492875375e-19	-9.732496855243089e-24	-4.810641616964284e-23	0	-5.596451407870916e-31	2.766511821814467e-41	4.295635013956887e-26	1.434289790606695e-20	-5.547372103876224e-21	8.633791889983986e-06	9.658339553426864e-06	1.623502355368106e-26	5.798970977123332e-26	2.117349850603622e-19	1.622190537098651e-19	3.625836366385134e-20	9.714535148741734e-06	9.658339772259434e-06	-1.193325598085224e-26	-8.662554819153325e-25
14.02496409416199	89.99999999999901	0	8.620910738379216e-35	0	0.93	-1.823149007185881e-63	-56.86196431670372	2.672696591817083	2.059345407956717	0.004600537976513295	8.029453505319455e-05	-6.571975887671034e-54	-3.364476243919364e-53	0	44.90408097191827	2.265087933519773e-80	0	5.384768159490925e-47	-5.022253696140144e-42	-1.518856649595084e-53	1.470779108975858e-58	-2.424557076614748e-57	0	0	9.587060181553554e-76	1.462422409493041e-60	2.920878172298238e-55	0	0	0	-5.571132988544917e-61	-3.34267979312695e-60	7.01010761351577e-54	0	1.533461040456575e-54	0	0	4.700643459084774e-61	0
14.03094816207886	89.99999999999901	0	0	0	0.93	0	-58.80279560672358	2.731578765377576	1.814425856832655	0.004032567971095522	7.038158840608437e-05	0	0	0	44.90414481619936	0	0	0	0	0	0	0	0	0	0	0	0	0	3.483599138736466e-46	0	0	0	0	0	0	3.483599138736466e-46	0	0	0
14.03594493865967	89.99999999999901	-7.758819664541295e-34	-2.424631145169154e-34	0	0.93	0	-58.97827501172394	2.697710393787839	1.816401475069681	0.00408167278836727	7.123862914606655e-05	-5.38806921148701e-36	0	0	44.90438613330763	0	0	0	-1.102025953895895e-39	-5.38806921148701e-36	0	0	0	0	0	0	4.041051908615258e-36	0	6.913892589769249e-39	0	0	-9.135823522529468e-51	0	4.041051908615258e-36	0	6.913892589769249e-39	0	0	-9.135823522529468e-51
14.04193472862244	89.99999999999901	0	0	0	0.93	0	-59.26174340354505	2.641000756958789	1.799310328917208	0.004206392288390507	7.34153950629132e-05	0	0	0	44.90454775381031	0	0	0	3.673419846319648e-40	0	0	0	0	0	0	0	0	0	0	0	0	0	0	0	0	0	0	0	0
14.04893398284912	89.99999999999901	0	0	0	0.93	0	-59.96289057488801	2.673394897630793	1.765526034127942	0.003974071586137743	6.936063388805705e-05	0	0	0	44.90486051078764	0	0	0	0	0	0	0	0	0	0	0	0	0	0	0	0	0	0	0	0	0	0	0	0
14.05293488502502	89.99999999999901	0	0	0	0.93	0	-61.7143983381715	2.229716030359573	1.722874371254352	0.004500265497056627	7.854445013753732e-05	0	0	0	44.90495105181596	0	0	2.011801263389448e-39	5.452031935148566e-41	0	0	0	0	0	0	0	0	0	0	0	0	0	0	0	0	0	0	0	0
14.05692005157471	89.99999999999901	-1.077613842297402e-34	-4.310455369189608e-35	0	0.93	0	-62.42389425974019	2.24337890997186	1.650491352866478	0.004284061026095111	7.47709702617264e-05	0	0	0	44.90524946311158	0	0	1.176100896151986e-46	4.105366594701613e-48	0	0	0	0	0	0	0	0	0	1.568134528202648e-46	0	0	-8.500874311134212e-65	0	0	0	1.568134528202648e-46	0	0	-8.500874311134212e-65
14.06092190742493	89.99999999999901	0	0	0	0.93	0	-64.25494371119987	1.777851109588898	1.491475149468681	0.004919794786029804	8.586661753867e-05	0	0	0	44.90533369658751	0	0	0	0	0	0	0	0	0	0	0	0	0	0	0	0	0	0	0	0	0	0	0	0
